<?xml version="1.0" encoding="UTF-8"?>
<!-- LiterAstro · lockup horizontal (Samira Souza). Versão canônica com o nome em curvas: Chillax Variable 565, 114,19px, tracking 0,08em, nas posições do arquivo original (translate 511.44 481.93; segunda linha +107.08). Original com texto vivo em originais/. -->
<svg xmlns="http://www.w3.org/2000/svg" viewBox="0 0 1000 1000"><g fill="#FAF559"><path transform="translate(511.44 481.93)" d="M25.589 -76.719V-13.765H62.236V0H24.017Q16.878 0 13.777 -3.513Q10.675 -7.025 10.675 -12.977V-76.719Z M83.186 -76.719H98.1V0H83.186Z M142.457 -76.719H157.37V0H142.457ZM180.31 -76.719V-62.953H119.568V-76.719Z M255.844 0H213.915Q206.725 0 203.649 -3.513Q200.573 -7.025 200.573 -12.977V-63.742Q200.573 -69.694 203.649 -73.206Q206.725 -76.719 213.915 -76.719H255.068V-63.268H215.487V-13.451H255.844ZM252.698 -31.634H211.895L210.015 -45.085H252.698Z M296.499 0H281.762V-76.719H310.382Q318.85 -76.719 325.645 -74.095Q332.439 -71.471 336.408 -66.153Q340.376 -60.834 340.376 -52.732Q340.376 -46.286 337.45 -41.333Q334.524 -36.38 329.3 -33.565Q324.076 -30.75 316.928 -30.75L312.862 -33.822Q319.61 -33.822 323.653 -31.736Q327.695 -29.65 330.526 -25.431Q333.358 -21.212 336.493 -14.829L343.756 0H327.58L320.899 -13.424Q319.027 -17.283 316.915 -20.036Q314.803 -22.79 311.826 -24.245Q308.849 -25.7 304.14 -25.7H295.054V-39.037H310.279Q314.594 -39.037 317.942 -40.456Q321.29 -41.874 323.193 -44.591Q325.097 -47.308 325.097 -51.281Q325.097 -55.43 323.168 -57.976Q321.238 -60.522 317.922 -61.738Q314.606 -62.953 310.508 -62.953H296.676Z"/><path transform="translate(511.44 589.01)" d="M62.628 -16.765 18.078 -16.714V-30.114H62.628ZM3.253 0 23.841 -66.4Q25.702 -72.402 30.119 -75.288Q34.537 -78.175 39.705 -78.175Q44.987 -78.175 49.347 -75.288Q53.707 -72.402 55.568 -66.4L76.156 0H60.94L42.94 -62.03Q42.084 -64.764 39.767 -64.764Q37.451 -64.764 36.647 -62.03L18.469 0Z M123.24 1.416Q113.151 1.416 105.371 -2.857Q97.592 -7.131 93.954 -15.233L106.406 -21.459Q108.415 -16.995 112.708 -14.698Q117.001 -12.4 123.24 -12.4Q127.173 -12.4 130.241 -13.485Q133.309 -14.569 135.136 -16.718Q136.962 -18.866 136.962 -21.977Q136.962 -25.544 134.97 -27.379Q132.978 -29.214 129.587 -30.15Q126.197 -31.086 121.989 -31.799Q117.65 -32.587 112.997 -33.9Q108.343 -35.214 104.281 -37.717Q100.218 -40.221 97.734 -44.347Q95.25 -48.472 95.25 -54.81Q95.25 -61.428 98.876 -66.67Q102.502 -71.911 108.7 -74.966Q114.898 -78.021 122.59 -78.021Q131.88 -78.021 139.366 -73.824Q146.851 -69.628 150.426 -61.525L138.025 -55.248Q136.016 -59.335 131.992 -61.77Q127.967 -64.204 121.984 -64.204Q118.599 -64.204 115.937 -63.126Q113.274 -62.047 111.719 -60.038Q110.164 -58.03 110.164 -55.353Q110.164 -51.9 112.276 -49.971Q114.388 -48.041 117.93 -47.017Q121.472 -45.992 125.805 -45.165Q130.144 -44.377 134.703 -43.064Q139.262 -41.75 143.148 -39.247Q147.034 -36.743 149.455 -32.623Q151.876 -28.503 151.876 -22.103Q151.876 -15.279 148.041 -9.986Q144.207 -4.693 137.724 -1.638Q131.24 1.416 123.24 1.416Z M191.102 -76.719H206.015V0H191.102ZM228.955 -76.719V-62.953H168.213V-76.719Z M265.097 0H250.36V-76.719H278.98Q287.448 -76.719 294.242 -74.095Q301.037 -71.471 305.006 -66.153Q308.974 -60.834 308.974 -52.732Q308.974 -46.286 306.048 -41.333Q303.122 -36.38 297.898 -33.565Q292.674 -30.75 285.526 -30.75L281.459 -33.822Q288.208 -33.822 292.25 -31.736Q296.293 -29.65 299.124 -25.431Q301.956 -21.212 305.09 -14.829L312.354 0H296.178L289.497 -13.424Q287.625 -17.283 285.513 -20.036Q283.401 -22.79 280.424 -24.245Q277.447 -25.7 272.738 -25.7H263.652V-39.037H278.877Q283.192 -39.037 286.54 -40.456Q289.888 -41.874 291.791 -44.591Q293.695 -47.308 293.695 -51.281Q293.695 -55.43 291.765 -57.976Q289.836 -60.522 286.52 -61.738Q283.204 -62.953 279.105 -62.953H265.274Z M370.786 1.456Q362.365 1.456 355.122 -1.544Q347.879 -4.545 342.444 -9.943Q337.008 -15.341 334.008 -22.63Q331.008 -29.918 331.008 -38.379Q331.008 -46.79 334.008 -54.027Q337.008 -61.263 342.444 -66.662Q347.879 -72.06 355.122 -75.061Q362.365 -78.061 370.786 -78.061Q379.271 -78.061 386.482 -75.061Q393.694 -72.06 399.103 -66.662Q404.513 -61.263 407.514 -54.027Q410.514 -46.79 410.514 -38.379Q410.514 -29.918 407.514 -22.63Q404.513 -15.341 399.078 -9.943Q393.642 -4.545 386.457 -1.544Q379.271 1.456 370.786 1.456ZM370.786 -12.675Q375.861 -12.675 380.319 -14.653Q384.777 -16.631 388.117 -20.116Q391.456 -23.601 393.32 -28.287Q395.183 -32.974 395.183 -38.379Q395.183 -43.797 393.32 -48.426Q391.456 -53.056 388.117 -56.54Q384.777 -60.025 380.345 -61.978Q375.912 -63.93 370.786 -63.93Q365.66 -63.93 361.202 -61.978Q356.744 -60.025 353.405 -56.54Q350.066 -53.056 348.202 -48.426Q346.338 -43.797 346.338 -38.379Q346.338 -32.974 348.202 -28.287Q350.066 -23.601 353.405 -20.116Q356.744 -16.631 361.202 -14.653Q365.66 -12.675 370.786 -12.675Z"/><path d="M436.24,502.61l-97.81,11.97,96.12-49.21-7.45-19.82-94.83,48.53,73.13-85.45-13.3-15.54-72.04,84.18,41.34-108.66-17.43-9.07-43.76,115.03v-125.82h-19.21v117.4l-35.63-109.83-17.87,7.93,38.51,118.71-76.91-89.87-13.3,15.54,73.99,86.45-96.33-48.06-7.29,19.92,94.45,47.11-96.8-13.83v21.43l73.63,14.48c-20.73,7.93-44.18,12.1-68.39,12.1h-2.81v24.14h2.81c19.64,0,38.75-2.47,56.8-7.35,18.88-5.07,35.73-12.5,49.93-21.82-.77-2.91-1.22-5.94-1.22-9.09,0-19.58,15.87-35.45,35.45-35.45s35.45,15.87,35.45,35.45c0,4.29-.8,8.39-2.2,12.19,16.32,9.58,36.41,16.86,59.58,21.36l.29.05c16.01,3.09,32.48,4.66,48.98,4.66h2.81v-24.14h-2.81c-26.98,0-52.4-4.09-74.18-11.89l78.27-12.28v-21.45Z"/><path d="M436.24,608.17c-52.33,0-123.05-13.66-149.19-51.15-25.01,31.01-83.13,51.15-143.21,51.15v-20.6c58.58,0,115.8-21.09,132.46-51.29l2.94-5.33h17.65l2.65,6.31c12.44,29.62,71.4,50.3,136.7,50.3v20.6Z"/></g></svg>
