<?xml version="1.0" encoding="UTF-8"?>
<!-- Via Simbólica · assinatura (marca secundária): a estrela cadente e o "via simbólica" manuscrito do site, nome em curvas (Great Vibes). -->
<svg xmlns="http://www.w3.org/2000/svg" viewBox="0 0 243.178 148.241"><g transform="translate(98.589 16) scale(0.71875)"><path d="M18 33 C30 27, 44 18, 60 8" fill="none" stroke="#F2F2F2" stroke-width="1.7" stroke-linecap="round" opacity="0.6"/><path d="M20 40 C33 34, 47 25, 62 15" fill="none" stroke="#F2F2F2" stroke-width="1.4" stroke-linecap="round" opacity="0.35"/><path d="M11 22 L13.3 31 L11 40 L8.7 31 Z" fill="#F2F2F2"/><path d="M2 31 L11 28.9 L20 31 L11 33.1 Z" fill="#F2F2F2"/></g><path fill="#F2F2F2" transform="translate(16 108.983)" d="M5.336 0.406Q3.538 0.406 2.842 -0.522Q2.146 -1.45 2.146 -2.9Q2.146 -4.408 2.668 -6.322Q3.19 -8.236 4.06 -10.614Q3.422 -10.614 3.422 -11.194Q3.886 -12.354 4.437 -13.833Q4.988 -15.312 4.988 -17.168Q4.988 -18.096 4.756 -18.734Q4.524 -19.372 4.06 -19.488Q4.06 -19.488 4.669 -19.604Q5.278 -19.72 5.974 -19.836Q6.67 -19.952 6.902 -19.952Q7.25 -20.01 7.54 -20.039Q7.83 -20.068 8.062 -20.068Q8.642 -20.068 8.845 -19.604Q9.048 -19.14 8.99 -17.574Q8.932 -16.124 8.41 -14.065Q7.888 -12.006 7.308 -10.498Q6.554 -8.526 5.916 -6.496Q5.278 -4.466 5.278 -3.132Q5.278 -1.972 5.916 -1.624Q6.38 -1.45 6.728 -1.45Q8.062 -1.45 9.338 -2.726Q10.614 -4.002 11.745 -5.829Q12.876 -7.656 13.63 -9.338Q13.282 -10.672 13.282 -12.528Q13.282 -14.5 13.746 -16.53Q14.21 -18.56 15.196 -19.923Q16.182 -21.286 17.748 -21.286Q18.85 -21.286 18.85 -20.3Q18.85 -20.068 18.299 -18.328Q17.748 -16.588 16.878 -14.21Q16.008 -11.832 15.022 -9.628Q14.79 -9.164 14.616 -8.7Q14.848 -7.714 15.486 -7.105Q16.124 -6.496 17.052 -6.496Q18.212 -6.496 19.227 -7.569Q20.242 -8.642 21.344 -11.194Q22.04 -11.194 22.04 -10.672Q21.112 -8.352 19.807 -6.96Q18.502 -5.568 16.878 -5.568Q14.906 -5.568 14.036 -7.598Q13.05 -5.568 11.716 -3.741Q10.382 -1.914 8.787 -0.754Q7.192 0.406 5.336 0.406Z M22.968 0Q20.822 0 19.952 -1.247Q19.082 -2.494 19.082 -4.118Q19.082 -4.988 19.285 -5.887Q19.488 -6.786 19.778 -7.54L23.664 -17.458Q23.838 -17.922 23.838 -18.27Q23.838 -18.85 23.548 -19.285Q23.258 -19.72 23.142 -19.894L26.332 -20.01Q27.202 -20.068 27.579 -19.807Q27.956 -19.546 27.956 -19.198Q27.956 -18.85 27.55 -17.922Q26.97 -16.53 25.984 -14.442Q24.998 -12.354 24.041 -10.15Q23.084 -7.946 22.417 -6.032Q21.75 -4.118 21.75 -3.074Q21.75 -2.32 22.127 -1.798Q22.504 -1.276 23.432 -1.276Q24.65 -1.276 25.839 -2.233Q27.028 -3.19 28.072 -4.698Q29.116 -6.206 30.015 -7.946Q30.914 -9.686 31.552 -11.194Q32.248 -11.194 32.248 -10.672Q31.668 -9.222 30.74 -7.366Q29.812 -5.51 28.623 -3.857Q27.434 -2.204 26.013 -1.102Q24.592 0 22.968 0ZM28.13 -23.606Q27.376 -23.606 26.825 -24.186Q26.274 -24.766 26.274 -25.578Q26.274 -26.564 27.086 -27.347Q27.898 -28.13 28.884 -28.13Q29.696 -28.13 30.276 -27.608Q30.856 -27.086 30.856 -26.274Q30.856 -25.23 30.044 -24.418Q29.232 -23.606 28.13 -23.606Z M44.138 0.174Q42.804 0.174 41.789 -0.58Q40.774 -1.334 40.774 -3.654Q40.774 -4.64 40.919 -5.51Q41.064 -6.38 41.296 -7.366Q40.774 -6.496 39.846 -5.22Q38.918 -3.944 37.787 -2.726Q36.656 -1.508 35.467 -0.696Q34.278 0.116 33.234 0.116Q31.726 0.116 30.798 -1.247Q29.87 -2.61 29.87 -4.814Q29.87 -7.192 30.972 -9.918Q32.074 -12.644 33.988 -15.138Q35.902 -17.632 38.396 -19.198Q40.89 -20.764 43.616 -20.764Q44.95 -20.764 46.168 -20.329Q47.386 -19.894 48.314 -18.908Q48.72 -18.502 48.72 -17.98Q48.72 -17.632 48.43 -17.4Q48.14 -17.168 47.676 -17.284Q47.038 -19.314 44.95 -19.314Q43.964 -19.314 42.688 -18.676Q41.122 -17.864 39.353 -16.095Q37.584 -14.326 36.047 -12.093Q34.51 -9.86 33.524 -7.598Q32.538 -5.336 32.538 -3.48Q32.538 -1.566 33.988 -1.566Q35.264 -1.566 36.627 -2.784Q37.99 -4.002 39.237 -5.829Q40.484 -7.656 41.528 -9.454Q42.572 -11.252 43.152 -12.354Q44.022 -13.92 44.776 -14.964Q45.53 -16.008 46.922 -16.008Q47.56 -16.008 48.198 -15.834Q48.836 -15.66 49.532 -15.776Q47.792 -14.036 46.487 -11.658Q45.182 -9.28 44.486 -6.989Q43.79 -4.698 43.79 -3.132Q43.79 -1.392 44.95 -1.392Q45.878 -1.392 46.951 -2.436Q48.024 -3.48 49.039 -5.075Q50.054 -6.67 50.924 -8.323Q51.794 -9.976 52.316 -11.194Q52.606 -11.194 52.809 -11.136Q53.012 -11.078 53.012 -10.672Q52.954 -10.44 52.809 -10.179Q52.664 -9.918 52.374 -9.28Q51.91 -8.352 51.098 -6.786Q50.286 -5.22 49.184 -3.625Q48.082 -2.03 46.806 -0.928Q45.53 0.174 44.138 0.174Z M63.452 0.232Q61.074 0.232 59.595 -1.247Q58.116 -2.726 58.116 -4.35Q58.116 -5.684 58.783 -6.815Q59.45 -7.946 60.552 -7.946L60.61 -8.062Q61.886 -10.382 63.075 -12.789Q64.264 -15.196 65.714 -17.922Q66.932 -20.184 68.353 -21.634Q69.774 -23.084 71.688 -23.084Q72.152 -23.084 72.964 -22.881Q73.776 -22.678 73.776 -22.04Q73.776 -21.576 73.254 -21.576Q72.848 -21.576 72.355 -21.808Q71.862 -22.04 71.572 -22.04Q70.47 -22.04 69.716 -20.764Q68.962 -19.488 68.962 -18.038Q68.962 -16.472 69.484 -15.225Q70.006 -13.978 70.702 -12.818Q71.398 -11.658 71.92 -10.469Q72.442 -9.28 72.442 -7.888Q72.442 -5.104 71.369 -3.393Q70.296 -1.682 68.556 -0.812H68.614Q71.688 -0.812 73.689 -3.683Q75.69 -6.554 77.662 -11.194Q78.358 -11.194 78.358 -10.672Q77.256 -8.062 75.922 -5.568Q74.588 -3.074 72.79 -1.45Q70.992 0.174 68.382 0.174Q67.28 0.174 66.352 -0.058Q65.018 0.232 63.452 0.232ZM62.582 -5.916Q62.582 -4.524 63.22 -3.248Q63.858 -1.972 65.54 -1.334Q67.048 -2.204 67.889 -4.031Q68.73 -5.858 68.73 -7.83Q68.73 -9.454 68.382 -11.136Q68.034 -12.818 67.657 -14.442Q67.28 -16.066 67.28 -17.342Q67.28 -17.748 67.309 -18.067Q67.338 -18.386 67.396 -18.676Q66.352 -17.11 65.279 -15.022Q64.206 -12.934 63.22 -11.02Q62.234 -9.106 61.422 -7.888Q62.582 -7.714 62.582 -5.916ZM60.668 -3.016Q60.668 -2.088 61.306 -1.392Q61.944 -0.696 63.22 -0.696Q63.8 -0.696 64.322 -0.812Q63.104 -1.566 62.379 -2.726Q61.654 -3.886 61.654 -5.394Q61.132 -4.814 60.9 -4.205Q60.668 -3.596 60.668 -3.016Z M79.344 0Q77.198 0 76.328 -1.247Q75.458 -2.494 75.458 -4.118Q75.458 -4.988 75.661 -5.887Q75.864 -6.786 76.154 -7.54L80.04 -17.458Q80.214 -17.922 80.214 -18.27Q80.214 -18.85 79.924 -19.285Q79.634 -19.72 79.518 -19.894L82.708 -20.01Q83.578 -20.068 83.955 -19.807Q84.332 -19.546 84.332 -19.198Q84.332 -18.85 83.926 -17.922Q83.346 -16.53 82.36 -14.442Q81.374 -12.354 80.417 -10.15Q79.46 -7.946 78.793 -6.032Q78.126 -4.118 78.126 -3.074Q78.126 -2.32 78.503 -1.798Q78.88 -1.276 79.808 -1.276Q81.026 -1.276 82.215 -2.233Q83.404 -3.19 84.448 -4.698Q85.492 -6.206 86.391 -7.946Q87.29 -9.686 87.928 -11.194Q88.624 -11.194 88.624 -10.672Q88.044 -9.222 87.116 -7.366Q86.188 -5.51 84.999 -3.857Q83.81 -2.204 82.389 -1.102Q80.968 0 79.344 0ZM84.506 -23.606Q83.752 -23.606 83.201 -24.186Q82.65 -24.766 82.65 -25.578Q82.65 -26.564 83.462 -27.347Q84.274 -28.13 85.26 -28.13Q86.072 -28.13 86.652 -27.608Q87.232 -27.086 87.232 -26.274Q87.232 -25.23 86.42 -24.418Q85.608 -23.606 84.506 -23.606Z M82.302 0.29Q84.448 -3.828 86.362 -7.975Q88.276 -12.122 90.248 -15.834Q91.408 -17.922 92.191 -18.763Q92.974 -19.604 94.308 -19.604Q94.772 -19.604 95.294 -19.459Q95.816 -19.314 96.338 -19.314Q96.686 -19.314 96.86 -19.372Q96.048 -18.908 94.772 -17.081Q93.496 -15.254 92.162 -12.876Q90.828 -10.498 89.784 -8.41Q90.886 -9.744 92.075 -11.078Q93.264 -12.412 94.714 -13.63Q95.99 -14.732 97.411 -16.037Q98.832 -17.342 100.224 -18.27Q101.616 -19.198 102.66 -19.198Q103.066 -19.198 103.182 -19.14Q104.284 -18.676 104.284 -17.632Q104.284 -17.284 103.994 -16.588Q103.24 -14.616 102.051 -12.557Q100.862 -10.498 99.818 -8.41Q100.688 -9.454 101.993 -10.962Q103.298 -12.47 104.632 -13.63Q105.908 -14.79 107.88 -16.066Q109.852 -17.342 111.766 -18.27Q113.68 -19.198 114.84 -19.198Q115.246 -19.198 115.42 -19.14Q115.42 -19.14 114.782 -18.009Q114.144 -16.878 113.187 -15.051Q112.23 -13.224 111.244 -11.165Q110.258 -9.106 109.475 -7.221Q108.692 -5.336 108.46 -4.06Q108.286 -3.306 108.286 -2.668Q108.286 -1.74 108.634 -1.45Q108.982 -1.16 109.388 -1.16Q110.548 -1.16 111.679 -2.146Q112.81 -3.132 113.912 -4.669Q115.014 -6.206 115.913 -7.946Q116.812 -9.686 117.45 -11.194Q118.146 -11.194 118.146 -10.672Q117.508 -9.106 116.551 -7.221Q115.594 -5.336 114.376 -3.654Q113.158 -1.972 111.708 -0.87Q110.258 0.232 108.576 0.232Q107.358 0.232 106.285 -0.58Q105.212 -1.392 105.212 -3.596Q105.212 -5.974 106.343 -8.352Q107.474 -10.73 108.692 -12.702Q109.272 -13.688 109.272 -14.268Q109.272 -14.964 108.576 -14.964Q107.996 -14.964 106.981 -14.384Q105.966 -13.804 104.458 -12.354Q103.53 -11.484 102.283 -9.947Q101.036 -8.41 99.76 -6.612Q98.484 -4.814 97.556 -3.074Q96.628 -1.334 96.338 0Q95.468 0 94.946 -0.725Q94.424 -1.45 94.424 -2.436Q94.424 -2.61 94.424 -2.784Q94.424 -2.958 94.482 -3.19Q94.772 -4.988 95.41 -6.235Q96.048 -7.482 96.86 -9.164Q97.266 -9.918 97.788 -10.933Q98.31 -11.948 98.716 -12.905Q99.122 -13.862 99.122 -14.5Q99.122 -15.08 98.658 -15.08Q98.136 -15.08 97.295 -14.558Q96.454 -14.036 95.7 -13.369Q94.946 -12.702 94.54 -12.354Q93.09 -10.962 91.031 -8.352Q88.972 -5.742 86.536 -0.928Q86.188 -0.29 85.724 -0.145Q85.26 0 84.274 0Q83.636 0 83.201 0.029Q82.766 0.058 82.302 0.29Z M120.988 0.29Q118.61 0.29 117.624 -1.16Q116.638 -2.61 116.638 -4.698Q116.638 -6.148 116.957 -7.424Q117.276 -8.7 117.914 -10.324H117.798Q117.334 -10.324 117.334 -10.788Q117.334 -11.02 117.827 -12.122Q118.32 -13.224 119.103 -14.79Q119.886 -16.356 120.727 -17.98Q121.568 -19.604 122.264 -20.88Q123.424 -23.026 124.816 -25.317Q126.208 -27.608 127.571 -29.696Q128.934 -31.784 129.862 -33.118Q131.95 -36.018 133.748 -36.018H134.038Q134.56 -36.018 135.227 -35.844Q135.894 -35.67 136.474 -35.786Q135.604 -34.858 133.835 -32.451Q132.066 -30.044 129.978 -26.97Q129.108 -25.694 127.803 -23.548Q126.498 -21.402 125.048 -18.734Q123.598 -16.066 122.351 -13.311Q121.104 -10.556 120.292 -7.975Q119.48 -5.394 119.48 -3.364Q119.48 -2.03 119.944 -1.508Q120.408 -0.986 121.104 -0.986Q121.974 -0.986 123.163 -2.001Q124.352 -3.016 125.599 -4.669Q126.846 -6.322 127.89 -8.323Q128.934 -10.324 129.601 -12.383Q130.268 -14.442 130.268 -16.182Q130.268 -17.864 129.659 -18.618Q129.05 -19.372 128.064 -19.372Q127.658 -19.372 127.252 -19.169Q126.846 -18.966 126.556 -18.966Q126.266 -18.966 126.266 -19.256Q126.266 -19.546 126.875 -19.894Q127.484 -20.242 128.702 -20.242Q129.804 -20.242 130.935 -19.662Q132.066 -19.082 132.82 -17.777Q133.574 -16.472 133.574 -14.384Q133.574 -11.89 132.414 -9.309Q131.254 -6.728 129.398 -4.553Q127.542 -2.378 125.309 -1.044Q123.076 0.29 120.988 0.29Z M139.896 0Q137.518 0 136.387 -1.711Q135.256 -3.422 135.256 -5.858Q135.256 -8.12 136.126 -10.556Q137.054 -13.224 138.707 -15.428Q140.36 -17.632 142.361 -18.995Q144.362 -20.358 146.334 -20.358Q148.712 -20.358 149.843 -18.734Q150.974 -17.11 150.974 -14.616Q150.974 -12.876 150.394 -10.962Q149.814 -9.048 148.828 -7.192Q149.582 -6.438 150.974 -6.438Q152.598 -6.438 153.758 -7.482Q154.918 -8.526 156.02 -11.194Q156.716 -11.194 156.716 -10.672Q155.614 -8.004 154.193 -6.757Q152.772 -5.51 150.568 -5.568Q149.234 -5.568 148.364 -6.322Q146.74 -3.654 144.507 -1.827Q142.274 0 139.896 0ZM140.708 -1.276Q142.042 -1.276 143.376 -2.407Q144.71 -3.538 145.812 -4.988Q146.914 -6.438 147.378 -7.482Q146.45 -9.164 146.305 -10.005Q146.16 -10.846 146.16 -11.252Q146.16 -12.354 146.74 -12.934Q147.32 -13.514 147.9 -13.514Q148.712 -13.514 149.292 -12.818Q149.408 -13.456 149.466 -14.007Q149.524 -14.558 149.524 -15.08Q149.524 -16.588 148.973 -17.545Q148.422 -18.502 147.262 -18.502Q146.044 -18.502 144.71 -17.458Q143.376 -16.414 142.187 -14.674Q140.998 -12.934 140.128 -10.788Q139.374 -8.99 138.968 -7.395Q138.562 -5.8 138.562 -4.466Q138.562 -3.016 139.084 -2.146Q139.606 -1.276 140.708 -1.276ZM147.378 -22.968Q146.972 -22.968 146.682 -23.084Q146.392 -23.2 146.392 -23.49Q148.19 -25.172 149.93 -26.941Q151.67 -28.71 153.352 -30.508Q153.816 -30.508 154.251 -30.015Q154.686 -29.522 154.686 -28.072Q154.164 -27.608 153.178 -26.883Q152.192 -26.158 151.061 -25.346Q149.93 -24.534 148.915 -23.896Q147.9 -23.258 147.378 -22.968Z M158.746 0.174Q156.6 0.174 155.585 -1.131Q154.57 -2.436 154.57 -4.234Q154.57 -6.09 155.092 -8.062Q155.614 -10.034 156.02 -11.368Q156.948 -14.616 158.369 -18.299Q159.79 -21.982 161.501 -25.549Q163.212 -29.116 164.894 -31.958Q166.228 -34.22 167.765 -35.351Q169.302 -36.482 170.462 -36.482Q171.39 -36.482 171.941 -35.815Q172.492 -35.148 172.492 -33.814Q172.492 -32.886 172.173 -31.61Q171.854 -30.334 171.1 -28.71Q169.07 -24.186 166.257 -19.662Q163.444 -15.138 159.152 -11.194Q158.456 -9.57 157.992 -7.714Q157.528 -5.858 157.528 -4.698Q157.528 -1.102 159.964 -1.102Q161.82 -1.102 164.082 -3.799Q166.344 -6.496 168.374 -11.194Q168.606 -11.194 168.838 -11.107Q169.07 -11.02 169.07 -10.672Q168.432 -9.106 167.475 -7.221Q166.518 -5.336 165.271 -3.654Q164.024 -1.972 162.4 -0.899Q160.776 0.174 158.746 0.174ZM159.616 -13.05Q161.704 -15.196 163.676 -18.009Q165.648 -20.822 167.359 -23.867Q169.07 -26.912 170.23 -29.638Q170.636 -30.508 170.897 -31.552Q171.158 -32.596 171.158 -33.292Q171.158 -34.104 170.752 -34.104Q170.52 -34.104 170.056 -33.669Q169.592 -33.234 168.838 -32.19Q167.736 -30.74 166.431 -28.246Q165.126 -25.752 163.792 -22.91Q162.458 -20.068 161.356 -17.429Q160.254 -14.79 159.616 -13.05Z M169.998 0Q167.852 0 166.982 -1.247Q166.112 -2.494 166.112 -4.118Q166.112 -4.988 166.315 -5.887Q166.518 -6.786 166.808 -7.54L170.694 -17.458Q170.868 -17.922 170.868 -18.27Q170.868 -18.85 170.578 -19.285Q170.288 -19.72 170.172 -19.894L173.362 -20.01Q174.232 -20.068 174.609 -19.807Q174.986 -19.546 174.986 -19.198Q174.986 -18.85 174.58 -17.922Q174 -16.53 173.014 -14.442Q172.028 -12.354 171.071 -10.15Q170.114 -7.946 169.447 -6.032Q168.78 -4.118 168.78 -3.074Q168.78 -2.32 169.157 -1.798Q169.534 -1.276 170.462 -1.276Q171.68 -1.276 172.869 -2.233Q174.058 -3.19 175.102 -4.698Q176.146 -6.206 177.045 -7.946Q177.944 -9.686 178.582 -11.194Q179.278 -11.194 179.278 -10.672Q178.698 -9.222 177.77 -7.366Q176.842 -5.51 175.653 -3.857Q174.464 -2.204 173.043 -1.102Q171.622 0 169.998 0ZM175.16 -23.606Q174.406 -23.606 173.855 -24.186Q173.304 -24.766 173.304 -25.578Q173.304 -26.564 174.116 -27.347Q174.928 -28.13 175.914 -28.13Q176.726 -28.13 177.306 -27.608Q177.886 -27.086 177.886 -26.274Q177.886 -25.23 177.074 -24.418Q176.262 -23.606 175.16 -23.606Z M183.57 0.232Q180.38 0.232 178.843 -1.45Q177.306 -3.132 177.306 -5.974Q177.306 -7.308 177.828 -9.048Q178.35 -10.788 179.22 -12.586Q180.09 -14.384 181.134 -15.776Q182.816 -18.038 184.846 -19.285Q186.876 -20.532 188.964 -20.532Q191.168 -20.532 192.125 -19.575Q193.082 -18.618 193.082 -17.342Q193.082 -16.124 192.502 -15.167Q191.922 -14.21 191.197 -13.63Q190.472 -13.05 189.95 -13.05Q189.486 -13.05 189.138 -13.398Q189.602 -13.978 190.124 -14.79Q190.646 -15.602 190.878 -16.356Q191.11 -17.052 191.11 -17.748Q191.11 -19.256 189.718 -19.256Q188.036 -19.256 186.441 -17.864Q184.846 -16.472 183.541 -14.297Q182.236 -12.122 181.453 -9.715Q180.67 -7.308 180.67 -5.278Q180.67 -3.422 181.453 -2.204Q182.236 -0.986 184.034 -0.986Q186.412 -0.986 188.21 -2.523Q190.008 -4.06 191.4 -6.409Q192.792 -8.758 193.836 -11.194Q194.068 -11.194 194.3 -11.107Q194.532 -11.02 194.532 -10.672Q193.372 -7.772 191.806 -5.278Q190.24 -2.784 188.239 -1.276Q186.238 0.232 183.57 0.232Z M206.422 0.174Q205.088 0.174 204.073 -0.58Q203.058 -1.334 203.058 -3.654Q203.058 -4.64 203.203 -5.51Q203.348 -6.38 203.58 -7.366Q203.058 -6.496 202.13 -5.22Q201.202 -3.944 200.071 -2.726Q198.94 -1.508 197.751 -0.696Q196.562 0.116 195.518 0.116Q194.01 0.116 193.082 -1.247Q192.154 -2.61 192.154 -4.814Q192.154 -7.192 193.256 -9.918Q194.358 -12.644 196.272 -15.138Q198.186 -17.632 200.68 -19.198Q203.174 -20.764 205.9 -20.764Q207.234 -20.764 208.452 -20.329Q209.67 -19.894 210.598 -18.908Q211.004 -18.502 211.004 -17.98Q211.004 -17.632 210.714 -17.4Q210.424 -17.168 209.96 -17.284Q209.322 -19.314 207.234 -19.314Q206.248 -19.314 204.972 -18.676Q203.406 -17.864 201.637 -16.095Q199.868 -14.326 198.331 -12.093Q196.794 -9.86 195.808 -7.598Q194.822 -5.336 194.822 -3.48Q194.822 -1.566 196.272 -1.566Q197.548 -1.566 198.911 -2.784Q200.274 -4.002 201.521 -5.829Q202.768 -7.656 203.812 -9.454Q204.856 -11.252 205.436 -12.354Q206.306 -13.92 207.06 -14.964Q207.814 -16.008 209.206 -16.008Q209.844 -16.008 210.482 -15.834Q211.12 -15.66 211.816 -15.776Q210.076 -14.036 208.771 -11.658Q207.466 -9.28 206.77 -6.989Q206.074 -4.698 206.074 -3.132Q206.074 -1.392 207.234 -1.392Q208.162 -1.392 209.235 -2.436Q210.308 -3.48 211.323 -5.075Q212.338 -6.67 213.208 -8.323Q214.078 -9.976 214.6 -11.194Q214.89 -11.194 215.093 -11.136Q215.296 -11.078 215.296 -10.672Q215.238 -10.44 215.093 -10.179Q214.948 -9.918 214.658 -9.28Q214.194 -8.352 213.382 -6.786Q212.57 -5.22 211.468 -3.625Q210.366 -2.03 209.09 -0.928Q207.814 0.174 206.422 0.174Z"/></svg>
